Patient4_TMGait_0pt8_01_left_39_EMG.mot
version=1
nRows=13
nColumns=33
inDegrees=no
endheader
time	1LAddLong	2LGlutMax	3LGlutMed	4LIliopsoas	5LSemiMemb	6LBicFemLong	7LRecFem	8LVastMed	9LVastLat	10LGasMed	11LTibAnt	12lTibPost	13LPeroneusLong	14LSol	15LExtDigLong	16LFlexDigLong	17RAddLong	18RGlutMax	19RGlutMed	20RIliopsoas	21RSemiMemb	22RBicFemLong	23RRecFem	24RVastMed	25RVastLat	26RGasMed	27RTibAnt	28RTibPost	29RPeroneusLong	30RSol	31RExtDigLong	32RFlexDigLong
43.17	-0.000763	-0.090942	-0.040283	-0.004883	-0.00946	0.008698	0.003052	0.005035	0.31586	-0.04776	-0.17777	0.006104	0.007019	-0.065613	-0.080109	-0.005493	0.038452	-0.079193	0.083618	-0.23804	-0.013885	-0.22858	0.19989	-0.06424	0.50476	0.031128	-0.54733	0.000763	0.051117	0.51422	-0.005646	-0.00061
43.171	0.00351	-0.032806	-0.032959	0.014801	-0.010376	0.001678	0.00351	0.008545	0.31693	-0.003967	-0.1239	0.012512	0.030518	-0.20645	-0.054474	0.001526	0.059814	-0.1059	-0.046234	-0.14038	0.084534	-0.36407	0.15167	-0.086823	0.39703	-0.00946	-0.30746	0.001068	0.12161	0.23834	-0.000458	-0.001984
43.172	0.001068	0.063171	-0.032654	0.028687	-0.001984	0.028992	-0.001984	0.010376	0.34363	-0.033264	-0.084076	0.005035	0.082245	-0.17944	-0.002289	-0.001221	0.083618	-0.071259	-0.19699	0.043488	0.13412	-0.27496	0.17639	-0.17929	0.35797	0.010834	-0.13245	-0.010071	0.14923	-0.023041	-0.002594	0.001678
43.173	-0.000153	0.10086	-0.045929	0.01709	-0.007629	0.008087	-0.007477	0.009003	0.31342	-0.077057	-0.038605	0.001221	0.1741	-0.19653	0.008087	0.008545	0.016174	-0.054474	-0.047913	0.26794	-0.091858	-0.042419	0.074158	-0.22583	0.25223	0.008087	-0.19379	-0.015259	0.089111	-0.10849	-0.005341	0.000305
43.174	0.003204	0.15228	-0.029144	0.015411	-0.00885	0.027313	0.00946	0.010529	0.34134	-0.026703	-0.001984	0.004272	0.19073	-0.18631	-0.023346	0.002441	-0.052643	-0.095673	-0.16037	0.383	-0.21484	0.015564	-0.27542	-0.09079	-0.032806	0.007477	-0.6633	-0.019684	0.045013	0.018921	-0.000916	0.002136
43.175	0.003204	0.24323	-0.038757	0.013733	-0.00412	0.000916	0.029755	0.00885	0.32089	0.001678	-0.010834	0.010071	0.12848	-0.17258	0.029755	-0.003967	-0.048218	-0.054016	0.15228	0.23178	-0.13687	0.021057	-0.43976	0.055542	-0.25375	0.003967	-1.0454	-0.020447	0.053101	-0.076752	0.001373	-0.009308
43.176	0.006256	0.27161	-0.022888	0.007019	-0.00473	-0.012817	0.020752	0.005341	0.34073	0.028687	0.040741	0.011749	0.058136	-0.17975	0.097504	-0.004883	-0.031433	0.03418	0.26642	0.12375	-0.11154	-0.045013	-0.12726	0.25513	-0.50003	0.009918	-1.1661	-0.024109	0.16129	-0.09201	-0.002136	-0.00061
43.177	0.010986	0.27496	-0.027313	-0.018005	0.001831	-0.007477	0.032654	0.005188	0.3154	-0.012512	0.033264	0.006866	-0.009003	-0.046844	0.1503	0.00412	-0.021362	0.018768	0.21851	0.032806	0.28442	-0.067444	-0.010071	0.21149	-0.31204	0.014191	-0.77927	-0.01709	0.16296	-0.068817	0.000763	0.002136
43.178	0.004425	0.30975	-0.020599	-0.0177	-0.010376	0.023651	0.024414	0.01297	0.31464	-0.077057	0.089722	0.009308	-0.06485	0.068207	0.3038	-0.005188	-0.015869	0.013885	0.50507	0.025024	0.26459	-0.098877	0.02243	0.19302	-0.10696	0.011902	-0.20264	-0.015564	0.062103	-0.11581	-0.002441	-0.004578
43.179	0.005188	0.31647	-0.022583	-0.0177	-0.001373	-0.017853	0.013428	0.003357	0.31052	-0.089569	0.091553	0.004883	-0.036163	0.080872	-0.010834	0.007019	-0.017242	-0.001831	0.54077	0.020294	0.096436	-0.095825	0.082397	0.14053	-0.070953	-0.006561	0.50598	-0.024567	0.024567	-0.067139	-0.005646	-0.005341
43.18	0.010071	0.3125	-0.036926	-0.004425	-0.006561	0.013275	0.01358	0.010223	0.31204	-0.10101	-0.022736	-0.01709	0.039673	0.070343	-0.095215	0.015106	-0.017395	-0.016174	0.063171	0.076599	-0.042267	-0.016174	0.13229	0.070953	-0.072327	-0.013123	0.077667	-0.021973	0.046234	-0.033569	-0.001984	-0.009766
43.181	0.006256	0.33478	-0.038147	0.009155	-0.00946	0.010834	0.007477	-0.004578	0.31433	-0.076599	-0.073242	-0.002136	0.06958	0.062866	-0.22186	0.019379	-0.016937	-0.022125	-0.14816	0.072479	0.027618	0.042114	0.159	0.040131	-0.060883	-0.012817	-0.009613	-0.027313	-0.019379	0.13229	-0.00061	0.002899
43.182	0.016632	0.34561	-0.038605	0.004883	-0.002136	0.014954	-0.01297	0.01236	0.30121	0.03006	-0.080109	-0.006256	0.10696	0.026093	-0.16235	0.018616	-0.016022	0.014191	-0.19333	0.012512	0.064545	-0.012817	0.24551	0.037994	-0.082245	-0.018616	0.14557	-0.032196	0.010681	0.27679	-0.001831	-0.00061
